<svg width="90" height="90" viewBox="0 0 90 90" fill="none" xmlns="http://www.w3.org/2000/svg">
<path d="M44.9998 2.14282C21.4035 2.14282 2.16636 21.3379 2.14267 44.917C2.11898 56.3393 6.59659 67.098 14.6989 75.2263C22.8013 83.3546 33.557 87.8334 44.9524 87.8571C68.596 87.8571 87.8332 68.6383 87.8569 45.0355C87.8569 33.6133 83.4029 22.8545 75.3006 14.75C67.1746 6.62167 56.4188 2.14282 44.9998 2.14282ZM44.9998 84.0418C23.4883 84.0418 5.98062 66.5293 5.95693 45.0355C5.95693 34.6086 10.0081 24.7977 17.3997 17.4278C24.7913 10.0341 34.5994 5.95814 44.9998 5.95814H45.0235C66.5349 5.98184 84.0189 23.4944 84.0189 45.0118C84.0189 66.5293 66.5112 84.0418 44.9998 84.0418Z" fill="#FEB800" stroke="#FEB800"/>
<path d="M21.4589 52.8805C21.3647 53.4118 21.4824 54.0156 21.8354 54.6435C23.13 56.9135 24.8717 58.8696 27.1547 60.6809C31.9327 64.4723 37.7462 66.356 44.9249 66.4285C49.7029 66.3802 53.7747 65.5591 57.3523 63.9652C62.2244 61.7676 65.7784 58.6523 68.2498 54.4261C68.8382 53.4118 68.6028 52.301 67.6614 51.7214C67.2377 51.4557 66.7434 51.3591 66.2727 51.4799C65.7549 51.6006 65.3077 51.987 65.0017 52.5183C63.3306 55.3921 60.9534 57.6863 57.9643 59.3526C51.7035 62.806 44.6896 63.5064 37.0872 61.4778C31.8385 60.053 27.8138 57.1067 25.107 52.7115C24.3539 51.4799 23.3418 51.1176 22.3533 51.7214C21.859 51.987 21.553 52.3976 21.4589 52.8805Z" fill="#FEB800" stroke="#FEB800"/>
<path d="M36.4271 34.2527C36.4024 31.917 34.2515 30 31.6061 30C30.2958 30 29.0844 30.4627 28.1696 31.278C27.2549 32.0933 26.7852 33.173 26.7852 34.3188C26.8099 36.6985 28.9361 38.5714 31.6061 38.5714C32.9165 38.5714 34.1526 38.1087 35.0674 37.2934C35.9574 36.4781 36.4519 35.3985 36.4271 34.2527Z" fill="#FEB800" stroke="#FEB800"/>
<path d="M58.4307 30H58.406C57.1236 30 55.8905 30.4407 54.978 31.256C54.0655 32.0712 53.5723 33.1289 53.5723 34.2747C53.5723 36.6324 55.7179 38.5494 58.3567 38.5714H58.406C59.6885 38.5714 60.8969 38.1307 61.8094 37.3375C62.7219 36.5222 63.2151 35.4425 63.2151 34.2967C63.1905 31.939 61.0449 30.022 58.4307 30Z" fill="#FEB800" stroke="#FEB800"/>
</svg>
