<svg width="87" height="90" viewBox="0 0 87 90" fill="none" xmlns="http://www.w3.org/2000/svg">
<path d="M77.4047 49.8045C75.2423 44.9323 73.0124 39.8909 70.8163 34.9173C70.6136 34.5112 70.6136 34.4097 70.9852 34.1391C73.7557 31.7368 74.6004 27.8458 73.08 24.4962C71.5934 21.1804 68.1472 19.2518 64.532 19.6917C64.1266 19.7594 64.059 19.7255 63.8901 19.3195C62.2683 15.5977 60.579 11.8082 58.9573 8.1541L57.5383 4.97365C57.3693 4.60147 57.2342 4.26312 57.0652 3.89094C56.6598 3.01124 56.2544 2.06388 55.8489 1.18418C55.4773 0.405981 54.9367 0.135305 54.565 0.0676354C54.0245 -0.0338684 53.4163 0.135305 52.8757 0.608989C52.673 0.778162 52.5041 0.947335 52.3014 1.11651L47.5713 5.68418C41.0167 12.0112 34.4959 18.3383 27.9414 24.6654C27.5697 25.0376 27.0629 25.3759 26.5899 25.5789C25.2047 26.1879 23.8194 26.797 22.468 27.406C20.1705 28.421 17.7717 29.4361 15.4742 30.5526C8.9534 33.6992 5.43961 38.9436 5.06796 46.1842C5.00039 47.4361 4.79767 47.9097 3.7165 48.3834C1.31767 49.3985 0 51.4624 0 54.1691C0 56.7406 1.21631 58.703 3.54757 59.8872C5.43961 60.8346 7.43301 60.8346 9.32505 59.8195C10.0346 59.4473 10.3724 59.515 10.9468 60.0564C13.6835 62.594 16.9946 64.1165 20.8124 64.5225C21.353 64.5902 21.5557 64.7594 21.7922 65.2669L22.9072 67.8045C25.4412 73.5564 28.0427 79.4774 30.6781 85.297C31.7254 87.5639 33.7188 89.1879 36.1852 89.797C36.8272 89.9323 37.4691 90.0338 38.1111 90.0338C40.0031 90.0338 41.8276 89.391 43.3142 88.1729C46.3212 85.703 47.1996 81.812 45.5441 78.0564C43.7534 73.9624 41.8951 69.8007 40.1045 65.7744C39.3274 64.0488 38.5841 62.3233 37.807 60.5977L37.5029 59.921C37.6718 59.8534 37.8408 59.7518 38.0097 59.6842C38.6854 59.3797 39.2936 59.0752 39.9355 58.8722C40.1383 58.8045 40.341 58.7368 40.5437 58.6353C41.3208 58.3308 42.0979 58.0263 42.8412 57.9586C51.5581 57.3496 60.4439 56.7406 69.0256 56.1654L76.6951 55.6579C77.3709 55.624 78.3507 55.4549 78.7561 54.7782C79.1616 54.0676 78.8913 53.1879 78.5534 52.4774L77.4047 49.8045ZM65.6808 23.2443C67.0998 23.109 68.8905 24.1917 69.7351 25.7819C70.6136 27.4398 70.2757 29.6052 69.0932 30.8909L65.6808 23.2443ZM67.2349 43.5112C62.0656 31.8722 56.7612 19.827 51.4905 7.98493C51.1526 7.24057 51.2878 7.00373 51.7608 6.56388C52.3014 6.09019 52.8082 5.61651 53.3487 5.07515C53.4163 5.00749 53.4839 4.93982 53.5515 4.87215L74.499 52.1729L74.195 52.2067C73.1814 52.2744 72.2353 52.3421 71.2555 52.3759C71.2217 52.3421 71.1542 52.2744 71.0866 52.2067C71.019 52.1391 70.9852 52.0037 70.9177 51.8684C70.8839 51.8007 70.8501 51.6992 70.8163 51.6315L67.2349 43.5112ZM30.7456 26.9661C35.1379 22.703 39.6315 18.3721 43.9561 14.2105L48.4159 9.9135L67.3701 52.7143L66.593 52.7819C65.6808 52.8496 64.7685 52.9173 63.8563 52.9849L59.0924 53.2894C53.8217 53.6278 48.3821 54 43.0101 54.3722C42.5709 54.406 42.4695 54.3383 42.3006 53.9323C38.8882 46.1503 35.1716 37.7932 30.6781 27.6767C30.4753 27.2706 30.5091 27.203 30.7456 26.9661ZM38.9219 55.3534C37.7732 55.8609 36.6245 56.3684 35.4757 56.8759C32.7728 58.094 29.9348 59.3797 27.1305 60.4285C23.7856 61.6466 19.934 61.3421 16.4878 59.6165C12.9402 57.8233 10.3049 54.7443 9.25748 51.1579C7.09515 43.7819 10.3724 36.7443 17.3662 33.5977C19.7313 32.5488 22.1301 31.4661 24.5289 30.4173L27.3332 29.1654L38.9219 55.3534ZM4.89903 56.5376C3.85165 55.8947 3.41243 54.9473 3.61515 53.7631C3.78408 52.6466 4.42602 51.8684 5.57476 51.3947L7.87223 56.6052C6.79107 57.1466 5.81126 57.1466 4.89903 56.5376ZM32.2322 62.2556C32.8742 61.9511 33.5837 61.6466 34.2594 61.3759C34.2932 61.4436 34.327 61.4774 34.3608 61.5451L36.2866 65.9097C38.28 70.3759 40.3072 74.9774 42.3006 79.5451C43.348 81.9473 42.7736 84.2143 40.7464 85.6353C39.6652 86.4135 38.28 86.6504 36.9285 86.312C35.6109 85.9737 34.5635 85.1278 33.9891 83.9774C33.381 82.7594 32.8404 81.4737 32.2998 80.2556C32.0971 79.7481 31.8606 79.2744 31.6579 78.7669C30.1375 75.3158 28.5833 71.8646 27.0629 68.4135L25.3736 64.5902C27.84 64.218 30.0699 63.203 32.2322 62.2556Z" fill="#FEB800"/>
<path d="M86.8646 33.361C86.6619 32.8873 86.2564 32.5151 85.6821 32.2783C83.5197 31.4324 81.3912 30.6204 79.3302 29.8422C79.0599 29.7407 78.7559 29.7068 78.4518 29.7068C78.3166 29.7068 78.1477 29.673 77.9788 29.673L77.6071 29.6392L77.4382 29.9775C77.3706 30.1128 77.303 30.2482 77.2355 30.3497C77.0665 30.6542 76.8638 30.9925 76.7962 31.3647C76.6949 31.9399 76.8638 32.7181 78.0801 33.1918L79.8032 33.8685C81.3236 34.4437 82.844 35.0527 84.3644 35.6279C84.6685 35.7632 84.9726 35.7971 85.2766 35.7971C86.0199 35.7971 86.5943 35.4249 86.8646 34.7143C87.0673 34.2745 87.0673 33.8008 86.8646 33.361Z" fill="#FEB800"/>
<path d="M78.3847 23.9209C78.6888 23.9209 78.9928 23.8532 79.3307 23.7179C80.074 23.4134 80.7835 23.0751 81.493 22.7705C81.7971 22.6352 82.135 22.4999 82.439 22.3307L83.3513 21.9247C84.0608 21.6202 84.7703 21.3157 85.4798 20.9773C86.561 20.4698 87.034 19.5224 86.6286 18.5751C86.4596 18.1352 86.1218 17.7969 85.6825 17.6277C85.2095 17.4247 84.6352 17.4585 84.0608 17.6954C81.8309 18.6427 79.8037 19.5563 77.8103 20.4698C77.2697 20.7066 76.8643 21.1126 76.6954 21.6202C76.5264 22.06 76.594 22.5337 76.7967 22.9735C77.1684 23.5826 77.7089 23.9209 78.3847 23.9209Z" fill="#FEB800"/>
<path d="M71.2221 17.3233C71.4248 17.3909 71.6275 17.4248 71.8303 17.4248C72.5736 17.4248 73.2155 16.9511 73.5196 16.139C74.4656 13.703 75.2427 11.6729 75.986 9.77814C76.0873 9.47363 76.1211 9.16912 76.1211 8.83077C76.1211 8.69544 76.1549 8.52626 76.1549 8.35709L76.1887 7.98491L75.8508 7.84957C75.7157 7.7819 75.5805 7.71423 75.4454 7.64656C75.0737 7.44356 74.6683 7.20671 74.2291 7.30822C73.6547 7.44356 72.9452 7.91724 72.6749 8.52626C71.864 10.421 71.1207 12.3834 70.4112 14.2781L70.1747 14.921C69.972 15.4962 69.9382 16.0375 70.1747 16.5112C70.4112 16.8496 70.7491 17.1541 71.2221 17.3233Z" fill="#FEB800"/>
</svg>
