<svg width="84" height="84" viewBox="0 0 84 84" fill="none" xmlns="http://www.w3.org/2000/svg">
<path d="M29.464 55.4539C26.7868 55.0846 24.0634 54.9 21.4555 54.2538C19.7707 53.8383 18.4782 54.023 17.0011 54.8077C12.6391 57.1387 8.20789 59.3544 3.79973 61.6162C3.63817 61.6855 3.4997 61.7778 3.33814 61.847C2.76116 62.1701 2.18417 62.1932 1.65334 61.7316C1.1456 61.27 1.07636 60.7161 1.28407 60.0699C2.36881 56.4694 3.45354 52.8459 4.53827 49.2224C5.02294 47.6298 5.53068 46.0373 5.96919 44.4218C6.06151 44.0756 5.99227 43.5678 5.78456 43.2678C-4.32422 28.1274 2.83039 7.84027 20.2092 2.37035C34.5876 -2.15329 50.1432 6.317 54.1128 20.8573C54.3667 21.7574 54.6898 21.9882 55.613 21.9882C69.6683 21.8266 81.4388 32.5126 82.7313 46.522C83.3083 52.869 81.785 58.7082 78.2539 63.9934C77.9538 64.455 77.9077 64.8243 78.0462 65.3321C79.5694 70.3404 81.0695 75.3718 82.5697 80.3801C82.6159 80.5416 82.662 80.7263 82.7082 80.8878C82.939 81.5341 82.8467 82.088 82.3158 82.5265C81.785 82.965 81.208 82.9189 80.631 82.6188C78.0231 81.2802 75.4151 79.9416 72.784 78.5799C70.2915 77.3105 67.822 76.018 65.3063 74.7717C64.937 74.5871 64.4062 74.564 64.0139 74.6794C49.1738 79.203 33.9414 70.9174 29.764 55.9847C29.6948 55.7078 29.6025 55.4539 29.5102 55.1769C29.5102 55.2923 29.4871 55.3616 29.464 55.4539ZM79.1309 78.6722C79.0386 78.326 78.9924 78.0721 78.9232 77.8413C77.6769 73.6408 76.4306 69.4633 75.1381 65.2628C74.8843 64.4319 74.9766 63.8088 75.4843 63.0933C79.0386 58.1312 80.5156 52.6151 79.9387 46.5451C78.6001 32.6049 65.4679 22.6344 51.6664 25.0809C37.9342 27.5273 29.1409 40.7982 32.2335 54.3922C35.4185 68.3786 50.1201 76.5258 63.7369 71.8406C64.5678 71.5636 65.2602 71.6098 66.0449 72.0021C70.1299 74.1255 74.238 76.2257 78.3231 78.326C78.577 78.4414 78.8078 78.5337 79.1309 78.6722ZM51.6202 22.219C51.551 21.942 51.5279 21.7343 51.4818 21.5497C48.3199 10.0559 36.6879 2.46267 24.8712 4.17058C6.68465 6.7786 -2.13168 27.435 8.55408 42.3907C9.03875 43.06 9.10799 43.7063 8.87719 44.491C7.60783 48.6684 6.36154 52.869 5.09217 57.0695C5.02294 57.3234 4.9537 57.6003 4.86138 57.9927C5.27681 57.785 5.55376 57.6465 5.85379 57.508C9.96193 55.4077 14.0701 53.3075 18.1551 51.1841C18.8013 50.861 19.3783 50.8149 20.0476 51.0226C21.2478 51.3919 22.471 51.8073 23.7172 51.9919C25.4482 52.2689 27.2253 52.3612 29.0486 52.5458C28.2639 45.1141 29.8794 38.5595 34.2184 32.7665C38.5573 26.9273 44.4195 23.5115 51.6202 22.219Z" fill="#FEB800" stroke="#FEB800"/>
<path d="M55.9521 50.5732C52.574 50.5732 49.1959 50.5732 45.8179 50.5732C44.8627 50.5732 44.2803 50.0645 44.1638 49.1809C44.0473 48.1902 44.6996 47.3869 45.7247 47.3869C47.3322 47.3601 48.9164 47.3869 50.5239 47.3869C55.6958 47.3869 60.891 47.3869 66.0629 47.4137C66.5056 47.4137 67.1113 47.494 67.3443 47.8153C67.6471 48.217 67.8568 48.9399 67.7869 49.4754C67.6704 50.2787 67.0414 50.6 66.3425 50.6C63.9895 50.6 61.6365 50.6 59.2602 50.6C58.1653 50.5732 57.047 50.5732 55.9521 50.5732Z" fill="#FEB800" stroke="#FEB800"/>
<path d="M56.0452 57.0232C52.6439 57.0232 49.2425 57.0232 45.8179 57.0232C44.8627 57.0232 44.2803 56.5144 44.1638 55.6308C44.0473 54.6401 44.6996 53.8369 45.7247 53.8369C47.3322 53.8101 48.9164 53.8369 50.5239 53.8369C55.6958 53.8369 60.891 53.8369 66.0629 53.8636C66.5056 53.8636 67.1113 53.944 67.3443 54.2653C67.6471 54.6669 67.8568 55.3899 67.7869 55.9254C67.6704 56.7286 67.0414 57.05 66.3425 57.05C63.9662 57.05 61.5666 57.05 59.1903 57.05C58.142 57.0232 57.0936 57.0232 56.0452 57.0232Z" fill="#FEB800" stroke="#FEB800"/>
<path d="M59.1041 44.1498C56.8585 44.1498 54.6368 44.1498 52.3913 44.1498C51.2685 44.1498 50.5996 43.5317 50.5996 42.5373C50.5996 41.5429 51.2446 40.9248 52.3913 40.9248C56.9302 40.9248 61.4691 40.9248 66.0079 40.9248C67.1307 40.9248 67.7996 41.5161 67.7996 42.5373C67.7996 43.5317 67.1307 44.1498 66.0079 44.1498C63.6907 44.1498 61.3974 44.1498 59.1041 44.1498Z" fill="#FEB800" stroke="#FEB800"/>
<path d="M24.8012 23.725C22.5317 23.725 20.2623 23.725 17.9928 23.725C16.8701 23.725 16.2012 23.1069 16.2012 22.1125C16.2012 21.1181 16.8462 20.5 17.9928 20.5C22.5317 20.5 27.0706 20.5 31.6095 20.5C32.7323 20.5 33.4012 21.0913 33.4012 22.1125C33.4012 23.1069 32.7323 23.725 31.6095 23.725C29.3401 23.725 27.0706 23.725 24.8012 23.725Z" fill="#FEB800" stroke="#FEB800"/>
<path d="M23.9413 30C21.9209 30 19.9005 30 17.8566 30C16.6584 30 16.0006 29.475 16.0006 28.525C15.9771 27.575 16.6349 27 17.8096 27C21.9444 27 26.0791 27 30.2139 27C31.3416 27 31.9759 27.55 31.9994 28.475C32.0229 29.425 31.3416 30 30.167 30C28.0996 30 26.0087 30 23.9413 30Z" fill="#FEB800" stroke="#FEB800"/>
<path d="M22.0234 33C23.4463 33 24.8691 33 26.292 33C27.3354 33 27.9757 33.575 27.9994 34.475C28.0231 35.4 27.3591 36 26.2682 36C23.4225 36 20.6006 36 17.7549 36C16.6403 36 16 35.425 16 34.475C16.0237 33.55 16.664 33 17.7786 33C19.1777 33 20.6006 33 22.0234 33Z" fill="#FEB800" stroke="#FEB800"/>
</svg>
