<svg width="185" height="192" viewBox="0 0 185 192" fill="none" xmlns="http://www.w3.org/2000/svg">
<path d="M184.275 122.273C175.34 114.94 153.072 98.1168 141.697 94.7616C137.194 93.4754 119.701 87.0368 108.051 95.5048C88.6848 109.654 110.835 126.105 117.038 108.748C119.787 100.989 119.215 92.2967 114.922 84.8029C109.548 75.463 100.99 72.1262 98.7372 71.3275C84.4154 66.1812 76.1564 74.9761 57.7748 79.928C49.951 82.0166 29.4441 87.7092 10.1683 73.4233" stroke="#1D70B8" stroke-width="2" stroke-miterlimit="10" stroke-dasharray="4.98 4.98"/>
<path d="M8.94128 72.5577C8.55784 72.2483 8.1744 71.939 7.79095 71.6296" stroke="#1D70B8" stroke-width="2" stroke-miterlimit="10"/>
<path d="M2.53237 66.6601C5.70569 68.1858 9.90698 69.7223 12.9937 70.0661L8.52114 72.2796L7.04266 77.2639C6.32854 74.0161 4.34934 69.7785 2.53237 66.6601Z" fill="#1D70B8"/>
</svg>
